<?xml version="1.0" encoding="UTF-8" standalone="no"?>
<!-- Created with Inkscape (http://www.inkscape.org/) -->

<svg
   width="127.99999"
   height="127.99999"
   viewBox="0 0 33.866664 33.866664"
   version="1.1"
   id="svg1"
   xmlns:xlink="http://www.w3.org/1999/xlink"
   xmlns="http://www.w3.org/2000/svg"
   xmlns:svg="http://www.w3.org/2000/svg">
  <defs
     id="defs1">
    <linearGradient
       id="linearGradient12">
      <stop
         style="stop-color:#5c54f3;stop-opacity:1;"
         offset="0.09618712"
         id="stop14" />
      <stop
         style="stop-color:#4c7dfb;stop-opacity:1;"
         offset="0.51783001"
         id="stop12" />
      <stop
         style="stop-color:#3eb6fb;stop-opacity:1;"
         offset="0.83266085"
         id="stop13" />
    </linearGradient>
    <linearGradient
       xlink:href="#linearGradient12"
       id="linearGradient13"
       x1="3.2847657"
       y1="29.632812"
       x2="28.685158"
       y2="4.2324219"
       gradientUnits="userSpaceOnUse"
       gradientTransform="translate(-3.284554,-3.6040651)" />
    <linearGradient
       xlink:href="#linearGradient12"
       id="linearGradient17"
       x1="6.7197518"
       y1="14.819673"
       x2="33.620895"
       y2="14.819673"
       gradientUnits="userSpaceOnUse"
       gradientTransform="translate(-3.284554,-3.6040651)" />
  </defs>
  <g
     id="layer1">
    <g
       id="g23"
       transform="translate(4.2330748,3.60484)">
      <path
         id="rect1"
         style="color:#000000;display:inline;fill:url(#linearGradient13);stroke-linecap:round;-inkscape-stroke:none"
         d="m 3.7400819,0.62797657 c -2.0425915,0 -3.74034013099,1.69774863 -3.74034013099,3.74034013 V 22.288153 c 0,2.042592 1.69774813099,3.740858 3.74034013099,3.740857 H 21.660435 c 2.042592,1e-6 3.74034,-1.698265 3.74034,-3.740857 V 12.245872 l -3.395141,3.370854 v 6.671427 c 0,0.22085 -0.12435,0.346232 -0.345199,0.346232 H 3.7400819 c -0.2208501,0 -0.3457153,-0.125382 -0.3457153,-0.346232 V 4.3683167 c 0,-0.2208506 0.1248647,-0.3457153 0.3457153,-0.3457153 H 18.779991 L 22.16273,0.66363331 c -0.164551,-0.0231485 -0.33198,-0.0356567 -0.502295,-0.0356567 z" />
      <path
         id="path2"
         style="color:#000000;fill:url(#linearGradient17);-inkscape-stroke:none"
         d="M 24.556641,2.0365682 11.308354,15.191321 6.9298096,11.341943 3.4354492,15.316378 11.529529,22.431706 25.400517,8.6573527 V 4.3868123 c 0,-0.8842192 -0.318704,-1.7031772 -0.843876,-2.3502441 z" />
    </g>
  </g>
</svg>
