<?xml version="1.0" encoding="UTF-8" standalone="no"?>
<!-- Created with Inkscape (http://www.inkscape.org/) -->

<svg
   width="127.99999"
   height="127.99999"
   viewBox="0 0 33.866664 33.866664"
   version="1.1"
   id="svg1"
   xmlns="http://www.w3.org/2000/svg"
   xmlns:svg="http://www.w3.org/2000/svg">
  <defs
     id="defs1" />
  <g
     id="layer1">
    <g
       id="g1"
       transform="matrix(1.1810081,0,0,1.1810081,-4.9989902,-3.0650703)">
      <path
         id="rect1"
         style="color:#000000;display:inline;fill-opacity:1;stroke:none;stroke-linecap:round;stroke-opacity:1;-inkscape-stroke:none"
         d="m 7.9731567,4.2328166 c -2.0425915,0 -3.7403401,1.6977486 -3.7403401,3.7403401 V 25.892993 c 0,2.042592 1.6977481,3.740858 3.7403401,3.740857 H 25.89351 c 2.042592,1e-6 3.74034,-1.698265 3.74034,-3.740857 V 15.850712 l -3.395141,3.370854 v 6.671427 c 0,0.22085 -0.12435,0.346232 -0.345199,0.346232 H 7.9731567 c -0.2208501,0 -0.3457153,-0.125382 -0.3457153,-0.346232 V 7.9731567 c 0,-0.2208506 0.1248647,-0.3457153 0.3457153,-0.3457153 H 23.013066 l 3.382739,-3.3589681 c -0.164551,-0.023149 -0.33198,-0.035657 -0.502295,-0.035657 z" />
      <path
         style="color:#000000;-inkscape-stroke:none"
         d="M 29.164062,5.2246094 15.554688,18.857422 11.175781,14.957031 7.65625,18.910156 15.769531,26.132812 32.908203,8.9628906 Z"
         id="path6" />
    </g>
  </g>
</svg>
